<svg xmlns="http://www.w3.org/2000/svg" width="25.302" height="24.252" viewBox="0 0 25.302 24.252">
  <path id="Icon_awesome-star" data-name="Icon awesome-star" d="M12.274.807,9.312,6.813,2.684,7.78a1.452,1.452,0,0,0-.8,2.477l4.795,4.673-1.134,6.6a1.451,1.451,0,0,0,2.1,1.529l5.929-3.117,5.929,3.117a1.452,1.452,0,0,0,2.1-1.529l-1.134-6.6,4.795-4.673a1.452,1.452,0,0,0-.8-2.477l-6.628-.966L14.878.807a1.453,1.453,0,0,0-2.6,0Z" transform="translate(-0.925 0.501)" fill="#dededb" stroke="#ffee3d" stroke-width="1"/>
</svg>
